<svg id="Grupo_728" data-name="Grupo 728" xmlns="http://www.w3.org/2000/svg" xmlns:xlink="http://www.w3.org/1999/xlink" width="105.002" height="100.146" viewBox="0 0 105.002 100.146">
  <defs>
    <clipPath id="clip-path">
      <rect id="Rectángulo_274" data-name="Rectángulo 274" width="105.002" height="100.146" fill="#3c3c3b"/>
    </clipPath>
  </defs>
  <g id="Grupo_727" data-name="Grupo 727" clip-path="url(#clip-path)">
    <path id="Trazado_677" data-name="Trazado 677" d="M52.505,100.146q-20.05,0-40.1,0c-7.461,0-12.4-4.936-12.4-12.39Q0,61.2,0,34.647c0-7.307,4.967-12.282,12.26-12.285,9.114,0,18.228-.019,27.342.024,1,0,1.282-.221,1.257-1.244-.075-3.118-.043-6.238-.024-9.357a11.664,11.664,0,1,1,23.326-.008c.021,3.16.041,6.32-.019,9.479-.018.906.21,1.133,1.124,1.129,9.154-.038,18.309-.026,27.463-.022,7.3,0,12.267,4.971,12.268,12.275q.005,26.615,0,53.23c0,7.305-4.969,12.275-12.27,12.277q-20.112.005-40.223,0m-.017-58.337q-23.695,0-47.389-.027c-1.037,0-1.235.281-1.233,1.266q.051,22.36.024,44.719c0,5.252,3.226,8.489,8.462,8.489q40.159,0,80.317,0c5.174,0,8.437-3.244,8.439-8.392q.006-22.42.027-44.841c0-1.028-.267-1.241-1.26-1.238q-23.694.051-47.388.024m-.01-3.89H80.536c6.438,0,12.875-.033,19.313.032,1.12.011,1.387-.321,1.279-1.341-.085-.8-.009-1.618-.019-2.428a7.8,7.8,0,0,0-7.922-7.926c-2.146-.02-4.292,0-6.438,0-7.126,0-14.252.025-21.377-.028-1.045-.008-1.3.287-1.227,1.272.09,1.208.045,2.429.016,3.642a3.836,3.836,0,0,1-3.867,3.854q-7.773.044-15.547,0a3.848,3.848,0,0,1-3.909-3.934c-.022-1.336-.038-2.674.01-4.008.023-.642-.173-.814-.813-.813-9.555.022-19.11-.022-28.665.043a7.633,7.633,0,0,0-7.294,6.172,34.95,34.95,0,0,0-.2,4.234c-.1,1.009.215,1.259,1.236,1.257q23.685-.055,47.37-.026m7.8-17.064c0-3.037.027-6.075-.006-9.111A7.769,7.769,0,1,0,44.733,11.7c-.037,6.155,0,12.311-.024,18.466,0,.7.106.978.906.97q6.863-.065,13.727,0c.876.009.958-.331.95-1.049-.032-3.077-.014-6.155-.015-9.233" transform="translate(0 0)" fill="#3c3c3b"/>
    <path id="Trazado_678" data-name="Trazado 678" d="M35.922,165.013a18.472,18.472,0,1,1,18.319,18.594,18.486,18.486,0,0,1-18.319-18.594m18.54-14.49a14.917,14.917,0,0,0-2.671.249c-10.238,1.664-15.442,14.083-9.46,22.552.5.7.739.784,1.359.061a13.984,13.984,0,0,1,21.329-.079c.71.827,1,.707,1.5-.1,3-4.829,3.381-9.842.734-14.876-2.676-5.09-7.1-7.555-12.795-7.811m-.118,29.2a15.171,15.171,0,0,0,7.817-2.257c.7-.426.721-.731.218-1.354a10.317,10.317,0,0,0-15.989.013c-.536.665-.392.948.257,1.345a15.022,15.022,0,0,0,7.7,2.253" transform="translate(-24.253 -99.018)" fill="#3c3c3b"/>
    <path id="Trazado_679" data-name="Trazado 679" d="M187.071,161.6H203.83a5.846,5.846,0,0,1,.97.019,1.869,1.869,0,0,1,1.718,1.88,1.906,1.906,0,0,1-1.748,1.976,7.175,7.175,0,0,1-.849.015h-33.64a4.909,4.909,0,0,1-.969-.028,1.938,1.938,0,0,1,.03-3.837,6.223,6.223,0,0,1,1.091-.023h16.638" transform="translate(-113.198 -109.098)" fill="#3c3c3b"/>
    <path id="Trazado_680" data-name="Trazado 680" d="M187.187,197.521h16.638a5.478,5.478,0,0,1,.97.021,1.938,1.938,0,0,1,.047,3.838,4.783,4.783,0,0,1-.969.029h-33.64c-.162,0-.324,0-.486,0a1.949,1.949,0,1,1-.048-3.886c.283-.011.567,0,.85,0h16.638" transform="translate(-113.171 -133.351)" fill="#3c3c3b"/>
    <path id="Trazado_681" data-name="Trazado 681" d="M187.116,233.447q8.562,0,17.123-.007a2.063,2.063,0,0,1,2.029,1.048,1.805,1.805,0,0,1-.086,1.955,2.044,2.044,0,0,1-1.874.9q-17.245-.013-34.49-.01a1.948,1.948,0,0,1-2.2-1.907c-.021-1.2.837-1.971,2.249-1.973q8.623-.014,17.245,0" transform="translate(-113.171 -157.609)" fill="#3c3c3b"/>
    <path id="Trazado_682" data-name="Trazado 682" d="M68.55,276.256q-4.549,0-9.1,0c-1.654,0-2.542-.67-2.564-1.914s.883-1.976,2.5-1.977q9.279,0,18.559,0a2,2,0,0,1,2.253,1.727,1.935,1.935,0,0,1-1.467,2.092,4.758,4.758,0,0,1-1.084.067q-4.549.007-9.1,0" transform="translate(-38.408 -183.887)" fill="#3c3c3b"/>
    <path id="Trazado_683" data-name="Trazado 683" d="M149.592,29.633a5.831,5.831,0,1,1,5.745-5.854,5.841,5.841,0,0,1-5.745,5.854m-.061-7.768a1.936,1.936,0,1,0,1.91,1.963,1.974,1.974,0,0,0-1.91-1.963" transform="translate(-97.006 -12.135)" fill="#3c3c3b"/>
    <path id="Trazado_684" data-name="Trazado 684" d="M70.813,175.182a7.135,7.135,0,0,1,14.268.2,7.135,7.135,0,1,1-14.268-.2m7.188-3.1a3.167,3.167,0,0,0-3.284,3.155,3.233,3.233,0,1,0,6.463.1A3.151,3.151,0,0,0,78,172.082" transform="translate(-47.81 -113.549)" fill="#3c3c3b"/>
  </g>
</svg>
