<svg id="Grupo_734" data-name="Grupo 734" xmlns="http://www.w3.org/2000/svg" xmlns:xlink="http://www.w3.org/1999/xlink" width="117.667" height="87.914" viewBox="0 0 117.667 87.914">
  <defs>
    <clipPath id="clip-path">
      <rect id="Rectángulo_287" data-name="Rectángulo 287" width="117.667" height="87.914" fill="#f27c00"/>
    </clipPath>
  </defs>
  <g id="Grupo_733" data-name="Grupo 733" clip-path="url(#clip-path)">
    <path id="Trazado_695" data-name="Trazado 695" d="M0,23.721c.1-.24.212-.477.3-.721a5.662,5.662,0,0,1,5.41-3.9q7.3-.061,14.593,0c.837.006,1.18-.208,1.35-1.081.856-4.393,1.791-8.77,2.707-13.15A5.815,5.815,0,0,1,31.538.151l72.236,14.993c3.033.629,6.073,1.222,9.1,1.888a5.7,5.7,0,0,1,4.641,7.092q-5.728,27.76-11.5,55.512c-.761,3.659-3.512,5.458-7.206,4.784-1.27-.232-2.532-.509-3.8-.765-.133.272-.222.438-.3.611a5.667,5.667,0,0,1-5.587,3.644q-41.539,0-83.077,0C2.829,87.915,1,86.144,0,83.272V23.721M47.522,85.112q20.511,0,41.022,0c2.767,0,3.793-1.034,3.793-3.833q0-27.756,0-55.511c0-2.862-1.018-3.878-3.865-3.878H6.658c-2.843,0-3.851,1.016-3.851,3.887q0,27.7,0,55.4c0,2.933,1,3.94,3.923,3.94H47.522M25.682,12.367c.522.125.957.241,1.4.332,8.053,1.664,16.1,3.36,24.163,4.968a50.373,50.373,0,0,0,8.811,1.351c9.573.171,19.151.058,28.727.067,4.021,0,6.36,2.34,6.377,6.331,0,.414,0,.828,0,1.258L113.342,30.4c.488-2.395.995-4.7,1.42-7.027a2.87,2.87,0,0,0-2.391-3.564c-1.79-.407-3.59-.768-5.388-1.14Q84.452,14,61.922,9.338,46.363,6.117,30.8,2.9a2.818,2.818,0,0,0-3.5,2.007c-.612,2.441-1.075,4.92-1.618,7.461M95.207,41.649V80.694a1.723,1.723,0,0,0,.35.175c1.272.267,2.541.552,3.821.779,2.2.391,3.414-.437,3.88-2.662q2.982-14.261,5.937-28.528c.4-1.936.8-3.873,1.213-5.9l-15.2-2.911m15.778.154,1.781-8.626L95.158,29.554v6.522c0,2.646,0,2.671,2.537,3.171,4.381.862,8.77,1.689,13.289,2.556M24.308,19.028H42.98L43,18.871,25.11,15.2l-.8,3.832" transform="translate(0 0)" fill="#f27c00"/>
    <path id="Trazado_696" data-name="Trazado 696" d="M45,110.992c-1.109,0-2.219.032-3.326-.006a2.894,2.894,0,0,1-2.939-2.9c-.056-1.758-.052-3.519-.008-5.276a2.924,2.924,0,0,1,2.947-3.033c2.292-.069,4.589-.074,6.881.006a2.892,2.892,0,0,1,2.884,2.97c.05,1.8.053,3.6-.007,5.391a2.861,2.861,0,0,1-2.875,2.835c-1.183.047-2.37.009-3.555.01m3.589-8.316h-6.98v5.451h6.98Z" transform="translate(-26.815 -69.105)" fill="#f27c00"/>
    <rect id="Rectángulo_277" data-name="Rectángulo 277" width="31.732" height="2.638" transform="translate(8.148 77.062)" fill="#f27c00"/>
    <rect id="Rectángulo_278" data-name="Rectángulo 278" width="4.106" height="2.649" transform="translate(21.981 67.755)" fill="#f27c00"/>
    <rect id="Rectángulo_279" data-name="Rectángulo 279" width="4.101" height="2.66" transform="translate(8.139 67.751)" fill="#f27c00"/>
    <rect id="Rectángulo_280" data-name="Rectángulo 280" width="4.118" height="2.673" transform="translate(28.798 67.767)" fill="#f27c00"/>
    <rect id="Rectángulo_281" data-name="Rectángulo 281" width="4.052" height="2.696" transform="translate(35.828 67.755)" fill="#f27c00"/>
    <rect id="Rectángulo_282" data-name="Rectángulo 282" width="4.07" height="2.68" transform="translate(15.007 67.74)" fill="#f27c00"/>
    <rect id="Rectángulo_283" data-name="Rectángulo 283" width="2.67" height="4.011" transform="translate(61.452 27.246)" fill="#f27c00"/>
    <rect id="Rectángulo_284" data-name="Rectángulo 284" width="2.647" height="4.052" transform="translate(67.229 27.246)" fill="#f27c00"/>
    <rect id="Rectángulo_285" data-name="Rectángulo 285" width="2.703" height="4.062" transform="translate(73.993 27.221)" fill="#f27c00"/>
    <rect id="Rectángulo_286" data-name="Rectángulo 286" width="2.633" height="4.055" transform="translate(79.82 27.204)" fill="#f27c00"/>
  </g>
</svg>
