<svg id="Grupo_113" data-name="Grupo 113" xmlns="http://www.w3.org/2000/svg" xmlns:xlink="http://www.w3.org/1999/xlink" width="34.994" height="45" viewBox="0 0 34.994 45">
  <defs>
    <clipPath id="clip-path">
      <rect id="Rectángulo_66" data-name="Rectángulo 66" width="34.994" height="45" fill="#2e2e2d"/>
    </clipPath>
  </defs>
  <g id="Grupo_112" data-name="Grupo 112" clip-path="url(#clip-path)">
    <path id="Trazado_640" data-name="Trazado 640" d="M136.038,0a2.552,2.552,0,0,1,1.956,1.81,16.308,16.308,0,0,1,.2,2.125h-2.764V2.75H127.9V3.942h-2.656c-.25-1.81.037-2.98,1.362-3.674.2-.106.424-.18.636-.268Z" transform="translate(-114.147)" fill="#2e2e2d"/>
    <path id="Trazado_641" data-name="Trazado 641" d="M54.572,167.532H66.965c1.2,0,1.608.48,1.506,1.694-.259,3.063-.494,6.129-.741,9.193q-.375,4.64-.756,9.28c-.189,2.335-.4,4.668-.555,7a2.936,2.936,0,0,1-3.234,3.077H45.914a2.834,2.834,0,0,1-3.173-2.839c-.253-2.726-.453-5.456-.675-8.185q-.381-4.684-.76-9.368-.341-4.246-.672-8.494c-.067-.876.435-1.362,1.371-1.363q6.284,0,12.568,0m-1.351,15.239q0,3.909,0,7.819c0,1.01-.015,2.021.007,3.031a1.338,1.338,0,0,0,1.928,1.212,1.473,1.473,0,0,0,.787-1.5q-.008-10.542,0-21.084a2.754,2.754,0,0,0-.029-.481,1.306,1.306,0,0,0-.874-1.065,1.351,1.351,0,0,0-1.813,1.39q-.007,5.337,0,10.674M49.26,193.553c-.172-2.734-.341-5.363-.5-7.993q-.413-6.728-.821-13.457a2.254,2.254,0,0,0-.111-.6,1.35,1.35,0,0,0-1.467-.866,1.306,1.306,0,0,0-1.133,1.353c.062,1.433.163,2.864.251,4.3q.532,8.657,1.065,17.314a1.36,1.36,0,1,0,2.718-.045m14.616-20.861h-.011c.013-.19.03-.38.037-.57a1.36,1.36,0,0,0-1.227-1.5,1.332,1.332,0,0,0-1.465,1.3c-.076.977-.12,1.958-.179,2.936q-.552,9.249-1.1,18.5a1.369,1.369,0,1,0,2.714.155q.27-4.647.546-9.293.342-5.764.688-11.528" transform="translate(-37.05 -152.782)" fill="#2e2e2d"/>
    <path id="Trazado_642" data-name="Trazado 642" d="M17.495,81.344c-5.36,0-10.72.007-16.08-.015a2.035,2.035,0,0,1-1.077-.362.887.887,0,0,1-.28-1.036c.3-.932.587-1.869.929-2.785A1.766,1.766,0,0,1,2.829,76H31.958a1.934,1.934,0,0,1,2.252,1.622c.227.679.462,1.355.683,2.037a1.16,1.16,0,0,1-1.23,1.681q-8.084,0-16.168,0" transform="translate(0 -69.311)" fill="#2e2e2d"/>
  </g>
</svg>
