<svg id="Grupo_947" data-name="Grupo 947" xmlns="http://www.w3.org/2000/svg" xmlns:xlink="http://www.w3.org/1999/xlink" width="32" height="36.396" viewBox="0 0 32 36.396">
  <defs>
    <clipPath id="clip-path">
      <rect id="Rectángulo_59" data-name="Rectángulo 59" width="32" height="36.396" fill="#474747"/>
    </clipPath>
  </defs>
  <g id="Grupo_106" data-name="Grupo 106" clip-path="url(#clip-path)">
    <path id="Trazado_637" data-name="Trazado 637" d="M.787,239.413A1.374,1.374,0,0,1,0,237.946a14.033,14.033,0,0,1,11.537-13.389,17.5,17.5,0,0,1,2.437-.2c1.444-.032,2.891-.052,4.334,0a13.646,13.646,0,0,1,12.117,7.567A13.541,13.541,0,0,1,32,237.981a1.333,1.333,0,0,1-.785,1.432Z" transform="translate(0 -203.018)" fill="#474747"/>
    <path id="Trazado_638" data-name="Trazado 638" d="M77.019,19.192a9.6,9.6,0,1,1,9.6-9.574,9.615,9.615,0,0,1-9.6,9.574" transform="translate(-61.024 0)" fill="#474747"/>
  </g>
</svg>
