<svg id="Grupo_397" data-name="Grupo 397" xmlns="http://www.w3.org/2000/svg" xmlns:xlink="http://www.w3.org/1999/xlink" width="31.057" height="31" viewBox="0 0 31.057 31">
  <defs>
    <clipPath id="clip-path">
      <rect id="Rectángulo_221" data-name="Rectángulo 221" width="31.057" height="31" fill="#3c3c3b"/>
    </clipPath>
  </defs>
  <g id="Grupo_395" data-name="Grupo 395" clip-path="url(#clip-path)">
    <path id="Trazado_663" data-name="Trazado 663" d="M31.057,13.563v4a1.161,1.161,0,0,1-.933.753c-1.052.239-2.1.511-3.146.761a.419.419,0,0,0-.336.293c-.176.471-.366.938-.573,1.4a.414.414,0,0,0,.02.441c.553.9,1.1,1.811,1.639,2.72a.959.959,0,0,1-.17,1.4q-1.134,1.135-2.272,2.268a.991.991,0,0,1-1.476.187c-.9-.538-1.8-1.076-2.7-1.621a.392.392,0,0,0-.414-.025q-.689.308-1.4.573a.444.444,0,0,0-.316.351c-.239,1-.5,1.992-.733,2.992a1.191,1.191,0,0,1-.781.95h-4a1.192,1.192,0,0,1-.781-.95c-.234-1-.495-1.994-.733-2.993a.444.444,0,0,0-.316-.351q-.708-.264-1.4-.574a.393.393,0,0,0-.414.026q-1.372.832-2.752,1.65a.955.955,0,0,1-1.38-.175Q4.543,26.491,3.4,25.345a.978.978,0,0,1-.175-1.451c.534-.89,1.065-1.783,1.61-2.667a.466.466,0,0,0,.021-.5c-.2-.44-.386-.886-.55-1.34a.463.463,0,0,0-.378-.326c-1.009-.246-2.012-.52-3.023-.759a1.147,1.147,0,0,1-.9-.747v-4a1.147,1.147,0,0,1,.9-.747c1.021-.241,2.035-.514,3.054-.766a.423.423,0,0,0,.337-.294c.176-.471.366-.938.573-1.4a.414.414,0,0,0-.021-.441c-.553-.9-1.1-1.812-1.64-2.721a.957.957,0,0,1,.173-1.4Q4.526,4.648,5.675,3.5A.973.973,0,0,1,7.1,3.331C8,3.863,8.893,4.392,9.778,4.938a.486.486,0,0,0,.524.024c.43-.2.869-.38,1.315-.539a.479.479,0,0,0,.341-.4c.24-1.041.493-2.078.747-3.116A1,1,0,0,1,13.858,0h3.124c.825,0,1.083.209,1.277,1.022.242,1.019.492,2.037.73,3.057a.418.418,0,0,0,.3.331c.472.178.94.364,1.4.573a.414.414,0,0,0,.442-.029c.9-.546,1.8-1.084,2.7-1.622a.973.973,0,0,1,1.43.169Q26.4,4.635,27.531,5.771a.979.979,0,0,1,.185,1.45c-.54.9-1.078,1.8-1.626,2.694a.412.412,0,0,0-.024.441c.2.448.394.905.563,1.368a.46.46,0,0,0,.375.329c1.041.245,2.076.518,3.119.755a1.161,1.161,0,0,1,.934.753M20.016,15.552A4.548,4.548,0,1,0,15.469,20.1a4.556,4.556,0,0,0,4.547-4.549" transform="translate(0 0)" fill="#3c3c3b"/>
  </g>
</svg>
