<svg id="Grupo_117" data-name="Grupo 117" xmlns="http://www.w3.org/2000/svg" xmlns:xlink="http://www.w3.org/1999/xlink" width="65.148" height="49.558" viewBox="0 0 65.148 49.558">
  <defs>
    <clipPath id="clip-path">
      <rect id="Rectángulo_67" data-name="Rectángulo 67" width="65.148" height="49.558" fill="#4eb740"/>
    </clipPath>
  </defs>
  <g id="Grupo_115" data-name="Grupo 115" clip-path="url(#clip-path)">
    <path id="Trazado_643" data-name="Trazado 643" d="M24.251,29.549c9.383-9.393,17.73-17.927,26.323-26.205C52.3,1.677,55.92-.557,57.015.126,60.2,2.113,62.763,5.284,65.042,8.38c.5.675-.84,3.336-1.954,4.471-11.4,11.611-22.96,23.064-34.4,34.637-2.714,2.747-5.024,2.772-7.725,0-6.243-6.4-12.586-12.7-18.94-18.99-2.716-2.688-2.7-5.211.058-7.809,1.171-1.1,2.328-2.227,3.4-3.423,2.606-2.9,5.132-2.788,7.688.048,3.567,3.956,7.151,7.9,11.078,12.231" transform="translate(0 0)" fill="#4eb740"/>
  </g>
</svg>
