<svg id="Grupo_60" data-name="Grupo 60" xmlns="http://www.w3.org/2000/svg" xmlns:xlink="http://www.w3.org/1999/xlink" width="76.624" height="70.282" viewBox="0 0 76.624 70.282">
  <defs>
    <clipPath id="clip-path">
      <rect id="Rectángulo_29" data-name="Rectángulo 29" width="76.624" height="70.282" fill="#fff"/>
    </clipPath>
  </defs>
  <g id="Grupo_59" data-name="Grupo 59" clip-path="url(#clip-path)">
    <path id="Trazado_621" data-name="Trazado 621" d="M0,148.641a9.608,9.608,0,0,1,1.639-3.7A7.479,7.479,0,0,1,7.5,141.92c4.693-.067,9.388-.023,14.082-.024a1.949,1.949,0,0,1,.278.05c.011.253.033.512.033.771q0,18.78.015,37.559a1.159,1.159,0,0,1-.647,1.169,7.712,7.712,0,0,1-3.823,1.113c-3.276.006-6.553.053-9.827-.012a7.711,7.711,0,0,1-7.48-6.431,1.885,1.885,0,0,0-.13-.33V148.641" transform="translate(0 -113.514)" fill="#fff"/>
    <path id="Trazado_622" data-name="Trazado 622" d="M150.717,25.543h.963q9.167,0,18.333,0a8.735,8.735,0,0,1,6.334,2.4,7.772,7.772,0,0,1,.844,10.346c-.148.2-.3.395-.449.588a7.256,7.256,0,0,1-1.832,11.45c1.5,4.046.442,7.249-3.231,9.626a7.2,7.2,0,0,1-6.626,10.317c-4.714.03-9.429.009-14.143.009q-7.483,0-14.966,0a20.544,20.544,0,0,1-7.632-1.605.842.842,0,0,1-.632-.922c.017-10.977.007-21.954.035-32.932a3.445,3.445,0,0,1,.513-1.22c.446-.974.9-1.945,1.347-2.917q3.681-7.972,7.347-15.95a3.981,3.981,0,0,0,.336-1.573c.03-3.168.04-6.337,0-9.5a2.164,2.164,0,0,1,1.151-2.086A11.293,11.293,0,0,1,142.45.074,6.274,6.274,0,0,1,147.523,1.6a14.331,14.331,0,0,1,5.589,13.375,50.1,50.1,0,0,1-2.123,9.617c-.088.28-.162.565-.273.954" transform="translate(-102.151 0)" fill="#fff"/>
  </g>
</svg>
