<svg xmlns="http://www.w3.org/2000/svg" xmlns:xlink="http://www.w3.org/1999/xlink" width="32" height="26.129" viewBox="0 0 32 26.129">
  <defs>
    <clipPath id="clip-path">
      <rect id="Rectángulo_58" data-name="Rectángulo 58" width="32" height="26.129" fill="#474747"/>
    </clipPath>
  </defs>
  <g id="Grupo_948" data-name="Grupo 948" transform="translate(-877.333 423)">
    <g id="Grupo_104" data-name="Grupo 104" transform="translate(877.333 -423)" clip-path="url(#clip-path)">
      <path id="Trazado_635" data-name="Trazado 635" d="M0,5.257c.054-.252.1-.505.162-.755A5.821,5.821,0,0,1,5.713.022c2.2-.041,4.393-.014,6.59-.011a.676.676,0,0,1,.753.728,10.124,10.124,0,0,1,0,1.122c-.044.592-.244.764-.836.764-2.072,0-4.144.028-6.215-.008a3.313,3.313,0,0,0-3.267,2.4A4.263,4.263,0,0,0,2.62,6c-.007,4.706.015,9.413-.015,14.119A3.337,3.337,0,0,0,5.034,23.4a4.841,4.841,0,0,0,1.052.106c1.968.01,3.935,0,5.9.005a3.272,3.272,0,0,1,.405.016c.333.042.641.141.654.631a12.212,12.212,0,0,1-.009,1.309c-.039.481-.257.659-.738.659-2.155,0-4.31-.006-6.465,0A5.882,5.882,0,0,1,.053,21.021.571.571,0,0,0,0,20.88V5.257" transform="translate(0 0.001)" fill="#474747"/>
      <path id="Trazado_636" data-name="Trazado 636" d="M94.75,14.458v-.4c0-1.78,0-3.561,0-5.342a1.281,1.281,0,0,1,1.5-1.4,1.515,1.515,0,0,1,.751.4q5.525,5.5,11.025,11.017a1.256,1.256,0,0,1,0,1.91q-5.5,5.517-11.018,11.024a1.242,1.242,0,0,1-1.429.325,1.289,1.289,0,0,1-.831-1.3q0-2.686,0-5.373v-.4h-.408q-4.263,0-8.526,0a1.49,1.49,0,0,1-1.093-.366,1.359,1.359,0,0,1-.425-1.038c0-2.551-.008-5.1,0-7.653a1.329,1.329,0,0,1,1.486-1.4q4.279,0,8.557,0h.406" transform="translate(-76.468 -6.617)" fill="#474747"/>
    </g>
  </g>
</svg>
