<svg id="Grupo_265" data-name="Grupo 265" xmlns="http://www.w3.org/2000/svg" xmlns:xlink="http://www.w3.org/1999/xlink" width="25.481" height="30.582" viewBox="0 0 25.481 30.582">
  <defs>
    <clipPath id="clip-path">
      <rect id="Rectángulo_55" data-name="Rectángulo 55" width="25.481" height="30.582" fill="#4a9d22"/>
    </clipPath>
  </defs>
  <g id="Grupo_98" data-name="Grupo 98" transform="translate(0 0)" clip-path="url(#clip-path)">
    <path id="Trazado_628" data-name="Trazado 628" d="M15.95,0V.412q0,3.3,0,6.6a2.645,2.645,0,0,0,2.832,2.833q3.189,0,6.378-.006h.32v.4q0,9.009,0,18.019a2.132,2.132,0,0,1-2.319,2.326H2.32A2.132,2.132,0,0,1,0,28.257Q0,15.284,0,2.311A2.128,2.128,0,0,1,2.3,0H15.95ZM8.418,13c1.115,0,2.23,0,3.344,0a1.16,1.16,0,0,0,1.29-1.3q.007-3.194,0-6.388a1.157,1.157,0,0,0-1.279-1.273q-3.31,0-6.619,0A1.151,1.151,0,0,0,3.871,5.311q-.008,3.211,0,6.423A1.148,1.148,0,0,0,5.144,13c1.092,0,2.183,0,3.275,0m3.451,4.584q3.883,0,7.766,0a1.416,1.416,0,0,0,.379-.03.493.493,0,0,0,.39-.545.487.487,0,0,0-.427-.479,1.832,1.832,0,0,0-.346-.022q-7.731,0-15.463,0a1.865,1.865,0,0,0-.381.026.524.524,0,0,0-.061,1,1.492,1.492,0,0,0,.445.047q3.848,0,7.7,0m.036,2.794H4.175a2.009,2.009,0,0,0-.347.01.487.487,0,0,0-.442.5.493.493,0,0,0,.436.541,1.766,1.766,0,0,0,.347.013H19.63a2.76,2.76,0,0,0,.278-.006.528.528,0,0,0,.006-1.054c-.115-.011-.232-.005-.348-.005H11.906M8.02,25.3h3.658c.174,0,.349.009.522-.008a.482.482,0,0,0,.475-.5.5.5,0,0,0-.438-.543,1.04,1.04,0,0,0-.243-.01H4.051a.91.91,0,0,0-.276.02.5.5,0,0,0-.389.548.483.483,0,0,0,.455.487,2.3,2.3,0,0,0,.313.009H8.02" transform="translate(0 0)" fill="#4a9d22"/>
    <path id="Trazado_629" data-name="Trazado 629" d="M225.523,7.254l7.556,8.215c-.133.009-.217.019-.3.019h-5.5a1.6,1.6,0,0,1-1.768-1.769q0-3.036,0-6.073c0-.1.009-.2.017-.393" transform="translate(-208.484 -6.707)" fill="#4a9d22"/>
  </g>
</svg>
