<svg xmlns="http://www.w3.org/2000/svg" xmlns:xlink="http://www.w3.org/1999/xlink" width="40.847" height="26.046" viewBox="0 0 40.847 26.046">
  <defs>
    <clipPath id="clip-path">
      <rect id="Rectángulo_60" data-name="Rectángulo 60" width="40.847" height="26.046" fill="#474747"/>
    </clipPath>
  </defs>
  <g id="Grupo_264" data-name="Grupo 264" transform="translate(0 -2)">
    <g id="Grupo_108" data-name="Grupo 108" transform="translate(0 2)" clip-path="url(#clip-path)">
      <path id="Trazado_639" data-name="Trazado 639" d="M20.424,26.031c-5.945,0-11.891-.021-17.836.015A2.483,2.483,0,0,1,0,23.458Q.058,13.022,0,2.586A2.485,2.485,0,0,1,2.588,0Q20.425.039,38.261,0a2.48,2.48,0,0,1,2.587,2.587q-.055,10.435,0,20.871a2.478,2.478,0,0,1-2.587,2.587c-5.945-.036-11.891-.015-17.837-.015M9.21,7.622c-.84,0-1.68,0-2.52,0-.729,0-1.054.325-1.057,1.044q-.005,1.437,0,2.874c0,.721.324,1.052,1.049,1.055q2.5.01,5,0c.729,0,1.054-.331,1.057-1.047q.005-1.437,0-2.874c0-.723-.325-1.047-1.049-1.052-.827-.005-1.653,0-2.48,0M27.762,19.568q3.437,0,6.874,0c.452,0,.73-.234.744-.605s-.277-.642-.74-.655c-.067,0-.133,0-.2,0q-6.695,0-13.389,0a1.845,1.845,0,0,0-.475.036.6.6,0,0,0-.3,1,1.05,1.05,0,0,0,.648.214c2.278.015,4.556.009,6.834.009M13.1,3.6H8.148c-.679,0-1.359-.009-2.038.005a.616.616,0,0,0-.64.625.638.638,0,0,0,.6.628,2.637,2.637,0,0,0,.319.007q6.714,0,13.429,0a1.713,1.713,0,0,0,.473-.046.572.572,0,0,0,.441-.63.592.592,0,0,0-.519-.573,2.069,2.069,0,0,0-.4-.014H13.1M30.263,22.445h2.718c.586,0,1.173.009,1.759-.006a.618.618,0,0,0,.64-.626.636.636,0,0,0-.6-.626,3.08,3.08,0,0,0-.359-.007h-5.8c-.853,0-1.706-.007-2.558.005-.179,0-.424.014-.522.125a.976.976,0,0,0-.262.644c.032.344.319.492.669.491q2.159,0,4.317,0m-9.832-6.224a3.724,3.724,0,0,0,.439,0,.587.587,0,0,0,.553-.581A.578.578,0,0,0,20.9,15a4.637,4.637,0,0,0-.955,0,.566.566,0,0,0-.516.61.6.6,0,0,0,.568.609,3.919,3.919,0,0,0,.439,0M6.453,16.215v0a3.309,3.309,0,0,0,.479,0,.574.574,0,0,0,.536-.593.535.535,0,0,0-.461-.607,4.094,4.094,0,0,0-1.071,0,.54.54,0,0,0-.462.609.575.575,0,0,0,.5.585,2.615,2.615,0,0,0,.478.005m5.423,0v0c.146,0,.294.011.439,0a.592.592,0,0,0,.584-.593A.582.582,0,0,0,12.362,15a4.344,4.344,0,0,0-.956.008.552.552,0,0,0-.5.617.574.574,0,0,0,.533.6,2.872,2.872,0,0,0,.439,0m5.82,0v.006c.133,0,.267.008.4,0a.626.626,0,0,0,.621-.605.615.615,0,0,0-.592-.631,4.475,4.475,0,0,0-.916.017.549.549,0,0,0-.491.624.571.571,0,0,0,.54.588,3.322,3.322,0,0,0,.439,0m11.258,0v0c.12,0,.24.007.36,0a.616.616,0,0,0,.632-.588.609.609,0,0,0-.606-.654,5.078,5.078,0,0,0-.8,0,.619.619,0,0,0,.013,1.238c.132.011.266,0,.4,0m5.407-.009v0a3.345,3.345,0,0,0,.479,0,.577.577,0,0,0,.535-.6.539.539,0,0,0-.468-.6,4.1,4.1,0,0,0-1.071,0,.536.536,0,0,0-.455.612.571.571,0,0,0,.5.582,2.581,2.581,0,0,0,.478.005m-25.188,0v0c.146,0,.294.012.439,0a.6.6,0,0,0,.573-.6.575.575,0,0,0-.547-.624,4.451,4.451,0,0,0-.917,0,.615.615,0,0,0,.013,1.221,3.285,3.285,0,0,0,.439,0m13.914.005c.146,0,.294.009.439,0a.62.62,0,0,0,.019-1.24,3.939,3.939,0,0,0-.439-.01c-.663,0-.967.194-.974.621s.3.635.955.631m8.563,0a4.375,4.375,0,0,0,.439,0,.6.6,0,0,0,.572-.6.576.576,0,0,0-.549-.623,4.451,4.451,0,0,0-.917,0,.581.581,0,0,0-.531.636.589.589,0,0,0,.586.59,3.944,3.944,0,0,0,.4,0" transform="translate(-0.001 0)" fill="#474747"/>
    </g>
  </g>
</svg>
