<svg xmlns="http://www.w3.org/2000/svg" xmlns:xlink="http://www.w3.org/1999/xlink" width="90.985" height="90.985" viewBox="0 0 90.985 90.985">
  <defs>
    <clipPath id="clip-path">
      <rect id="Rectángulo_232" data-name="Rectángulo 232" width="64.334" height="64.338" fill="#f27c00"/>
    </clipPath>
  </defs>
  <g id="Grupo_444" data-name="Grupo 444" transform="translate(0 45.491) rotate(-45)">
    <g id="Grupo_443" data-name="Grupo 443" clip-path="url(#clip-path)">
      <path id="Trazado_668" data-name="Trazado 668" d="M13.329,64.338H11.822a6.363,6.363,0,0,1-3.136-1.71C6.376,60.29,4.017,58,1.737,55.634a6.21,6.21,0,0,1-1.41-2.181A5.154,5.154,0,0,1,1.815,47.8q7.565-7.533,15.1-15.1c.171-.171.333-.349.57-.6-.253-.209-.461-.355-.638-.532Q9.317,24.046,1.795,16.515a5.24,5.24,0,0,1,0-7.893C4.064,6.337,6.323,4.035,8.644,1.8A6.48,6.48,0,0,1,10.86.33a5.122,5.122,0,0,1,5.664,1.45q7.536,7.562,15.094,15.1c.173.173.355.338.557.531.2-.19.366-.343.526-.5q7.5-7.5,15.013-15a7.234,7.234,0,0,1,1.4-1.151,5.19,5.19,0,0,1,6.532.957c2.1,2.077,4.157,4.191,6.27,6.252a7.4,7.4,0,0,1,2.418,3.852v1.508a7.517,7.517,0,0,1-2.419,3.848Q54.656,24.377,47.444,31.63c-.172.172-.336.352-.6.632a6.678,6.678,0,0,1,.643.5q7.215,7.206,14.43,14.411a7.51,7.51,0,0,1,2.418,3.847v1.508a7.286,7.286,0,0,1-2.371,3.8q-2.834,2.755-5.588,5.592a7.4,7.4,0,0,1-3.85,2.415H51.017a7.415,7.415,0,0,1-3.8-2.374q-7.226-7.283-14.5-14.518c-.172-.172-.352-.336-.6-.575-.2.237-.349.441-.525.617Q24.38,54.7,17.176,61.919a7.513,7.513,0,0,1-3.847,2.419" transform="translate(0 0)" fill="#f27c00"/>
    </g>
  </g>
</svg>
