<svg id="Grupo_262" data-name="Grupo 262" xmlns="http://www.w3.org/2000/svg" xmlns:xlink="http://www.w3.org/1999/xlink" width="26.482" height="31.137" viewBox="0 0 26.482 31.137">
  <defs>
    <clipPath id="clip-path">
      <rect id="Rectángulo_54" data-name="Rectángulo 54" width="26.482" height="31.137" fill="#474747"/>
    </clipPath>
  </defs>
  <g id="Grupo_96" data-name="Grupo 96" clip-path="url(#clip-path)">
    <path id="Trazado_626" data-name="Trazado 626" d="M13.543,0a2.817,2.817,0,0,1,1.343.719,2.406,2.406,0,0,1,.687,1.763c0,.3-.091.676.051.887.129.191.522.2.8.3a9.9,9.9,0,0,1,6.77,7.753,10.779,10.779,0,0,1,.159,2.056c.017,2.666.01,5.331,0,8a.711.711,0,0,0,.235.556q1.354,1.334,2.685,2.691a.8.8,0,0,1,.2.47c.028.411.009.826.009,1.255H0c0-.49-.011-.965.009-1.438,0-.1.11-.209.191-.291q1.339-1.349,2.689-2.687a.711.711,0,0,0,.235-.556c-.008-2.676,0-5.352-.007-8.028a10.142,10.142,0,0,1,1.031-4.67A9.925,9.925,0,0,1,10.5,3.548c.319-.093.435-.215.417-.55a3.027,3.027,0,0,1,.266-1.717A2.457,2.457,0,0,1,12.768.057c.057-.015.111-.038.167-.057Z" transform="translate(0)" fill="#474747"/>
    <path id="Trazado_627" data-name="Trazado 627" d="M136.008,358.855a3.086,3.086,0,1,1-6.171,0Z" transform="translate(-119.682 -330.806)" fill="#474747"/>
  </g>
</svg>
