<svg id="Grupo_950" data-name="Grupo 950" xmlns="http://www.w3.org/2000/svg" xmlns:xlink="http://www.w3.org/1999/xlink" width="32" height="22.506" viewBox="0 0 32 22.506">
  <defs>
    <clipPath id="clip-path">
      <rect id="Rectángulo_311" data-name="Rectángulo 311" width="32" height="22.506" fill="#474747"/>
    </clipPath>
  </defs>
  <g id="Grupo_949" data-name="Grupo 949" clip-path="url(#clip-path)">
    <path id="Trazado_717" data-name="Trazado 717" d="M274.289,38.668l-.26.793-9.667-9.578,9.683-9.586.244.746Z" transform="translate(-242.289 -18.602)" fill="#474747"/>
    <path id="Trazado_718" data-name="Trazado 718" d="M48.151.289c-.484.473-.941.911-1.388,1.36Q40.706,7.721,34.652,13.795a1.11,1.11,0,0,1-1.745.005L19.65.5C19.585.437,19.523.368,19.4.233c.374-.083.689-.159,1.007-.22A1.831,1.831,0,0,1,20.744,0H46.8a2.854,2.854,0,0,1,1.35.287" transform="translate(-17.776 0)" fill="#474747"/>
    <path id="Trazado_719" data-name="Trazado 719" d="M38.967,151.475l9.71,9.621c-.383.086-.7.164-1.013.223a2.241,2.241,0,0,1-.405.011q-12.979,0-25.957,0a2.861,2.861,0,0,1-1.35-.27l9.662-9.568c.813.809,1.674,1.67,2.54,2.526a2.932,2.932,0,0,0,3.418.605,3.727,3.727,0,0,0,.9-.663c.779-.752,1.534-1.529,2.3-2.3.079-.079.162-.154.2-.191" transform="translate(-18.286 -138.827)" fill="#474747"/>
    <path id="Trazado_720" data-name="Trazado 720" d="M.228,19.281l9.7,9.614L.218,38.512A5.669,5.669,0,0,1,.011,37.42q-.021-8.5,0-16.992a6.25,6.25,0,0,1,.217-1.147" transform="translate(0 -17.671)" fill="#474747"/>
  </g>
</svg>
