<svg id="Grupo_946" data-name="Grupo 946" xmlns="http://www.w3.org/2000/svg" xmlns:xlink="http://www.w3.org/1999/xlink" width="36.754" height="32" viewBox="0 0 36.754 32">
  <defs>
    <clipPath id="clip-path">
      <rect id="Rectángulo_309" data-name="Rectángulo 309" width="36.754" height="32" fill="#474747"/>
    </clipPath>
  </defs>
  <g id="Grupo_945" data-name="Grupo 945" clip-path="url(#clip-path)">
    <path id="Trazado_708" data-name="Trazado 708" d="M39.1,72.324H54.459c.768,0,.957.192.957.97q0,8.036,0,16.072c0,.771-.19.961-.967.961H23.685c-.764,0-.95-.183-.95-.934q0-8.073,0-16.146c0-.73.194-.923.923-.923H39.1m-.043,1.391H27.509c-.72,0-.971.207-1.136.9a1.673,1.673,0,0,1-1.362,1.351.981.981,0,0,0-.906,1.145q0,4.213,0,8.427a.973.973,0,0,0,.906,1.141,1.7,1.7,0,0,1,1.37,1.392.954.954,0,0,0,1.089.874q11.6,0,23.2,0a.97.97,0,0,0,1.106-.907,1.663,1.663,0,0,1,1.318-1.348c.745-.185.931-.417.932-1.188q0-4.176,0-8.353c0-.783-.191-1.006-.966-1.2a1.641,1.641,0,0,1-1.27-1.265c-.2-.791-.413-.972-1.231-.972H39.052" transform="translate(-20.48 -65.153)" fill="#474747"/>
    <path id="Trazado_709" data-name="Trazado 709" d="M190.565,5.982c-.515,0-.96.015-1.4-.01a.508.508,0,0,1-.333-.212c-.283-.42-.537-.859-.808-1.288a.931.931,0,0,0-1.264-.438,1.706,1.706,0,0,1-1.96-.461.939.939,0,0,0-1.358-.159c-1.293.8-2.582,1.605-3.881,2.394a1.237,1.237,0,0,1-.585.165c-.722.019-1.445.008-2.277.008.17-.119.244-.176.323-.225Q181.511,2.977,186,.2c.533-.329.842-.257,1.172.275q1.611,2.6,3.217,5.2c.05.081.094.166.171.3" transform="translate(-159.175 0)" fill="#474747"/>
    <path id="Trazado_710" data-name="Trazado 710" d="M56.38,265.848c.534,0,.991-.014,1.447.01a.484.484,0,0,1,.3.215c.216.316.4.651.612.973a.913.913,0,0,0,1.211.414,1.731,1.731,0,0,1,2.02.479.922.922,0,0,0,1.3.147c1.107-.678,2.2-1.372,3.318-2.038a1.5,1.5,0,0,1,.689-.192c.69-.025,1.381-.009,2.174-.009-.146.115-.21.176-.284.222q-4.193,2.6-8.389,5.188c-.595.367-.881.3-1.248-.3q-1.463-2.366-2.923-4.733c-.063-.1-.124-.207-.227-.381" transform="translate(-50.79 -239.483)" fill="#474747"/>
    <path id="Trazado_711" data-name="Trazado 711" d="M226.05,46.526l2.4-1.486a2.862,2.862,0,0,0,1.81.863,2.426,2.426,0,0,0,.879-.049.437.437,0,0,1,.628.287,4.137,4.137,0,0,0,.227.385Z" transform="translate(-203.637 -40.574)" fill="#474747"/>
    <path id="Trazado_712" data-name="Trazado 712" d="M92.093,266.222c-.542.335-1.081.676-1.631,1a.313.313,0,0,1-.276-.057,2.849,2.849,0,0,0-2.724-.633c-.321.086-.31-.177-.451-.371h5.063Z" transform="translate(-78.384 -239.77)" fill="#474747"/>
    <path id="Trazado_713" data-name="Trazado 713" d="M1.03,165.769c-.348-.565-.649-1.029-.923-1.508a.628.628,0,0,1,.22-.9c.211-.147.436-.274.7-.439Z" transform="translate(0 -146.765)" fill="#474747"/>
    <path id="Trazado_714" data-name="Trazado 714" d="M364.494,140.464v-1.811c.768.881.867,1.455,0,1.811" transform="translate(-328.354 -124.905)" fill="#474747"/>
    <path id="Trazado_715" data-name="Trazado 715" d="M76.1,108.9a2.956,2.956,0,0,0-2.189,2.094c-.02.066-.131.119-.211.148a.665.665,0,0,1-.221.005H50.806a2.97,2.97,0,0,0-2.073-2.2.337.337,0,0,1-.169-.261q-.014-3.97,0-7.941a.38.38,0,0,1,.2-.277,2.967,2.967,0,0,0,2.037-2.177h.386q11.13,0,22.26-.006A.469.469,0,0,1,74,98.66a2.8,2.8,0,0,0,1.845,1.793.411.411,0,0,1,.241.282c.013,2.708.011,5.416.011,8.16m-8.83-4.2a4.941,4.941,0,1,0-4.943,4.956,4.918,4.918,0,0,0,4.943-4.956m-13.149.023a1.191,1.191,0,1,0-1.183,1.175,1.178,1.178,0,0,0,1.183-1.175m17.6,1.175a1.182,1.182,0,0,0,1.206-1.19,1.194,1.194,0,1,0-1.206,1.19" transform="translate(-43.743 -88.537)" fill="#474747"/>
    <path id="Trazado_716" data-name="Trazado 716" d="M169.308,126.615c-.135.138-.268.363-.462.448a.547.547,0,0,1-.713-.3,1.042,1.042,0,0,0-1.294-.577c-.3.089-.548.239-.569.6s.247.5.522.581c.353.108.724.157,1.079.261a1.9,1.9,0,0,1,1.52,1.626,1.68,1.68,0,0,1-1.29,1.8c-.21.072-.354.131-.381.4a.518.518,0,0,1-.6.478.58.58,0,0,1-.562-.538.5.5,0,0,0-.261-.313,2.13,2.13,0,0,1-1.33-1.306.612.612,0,0,1,.342-.857c.319-.113.6.049.768.444a1.336,1.336,0,0,0,1.994.383.488.488,0,0,0-.132-.786,4.121,4.121,0,0,0-.829-.3c-.283-.087-.58-.131-.855-.236a1.649,1.649,0,0,1-1.172-1.591,1.718,1.718,0,0,1,1.13-1.671c.215-.1.369-.166.375-.457a.5.5,0,0,1,.529-.475.515.515,0,0,1,.593.445c.035.3.189.394.433.5a2.019,2.019,0,0,1,1.167,1.439" transform="translate(-148.56 -111.911)" fill="#474747"/>
  </g>
</svg>
