<svg id="Grupo_48" data-name="Grupo 48" xmlns="http://www.w3.org/2000/svg" xmlns:xlink="http://www.w3.org/1999/xlink" width="72.568" height="72.579" viewBox="0 0 72.568 72.579">
  <defs>
    <clipPath id="clip-path">
      <rect id="Rectángulo_26" data-name="Rectángulo 26" width="72.568" height="72.579" fill="#3c3c3b"/>
    </clipPath>
  </defs>
  <g id="Grupo_47" data-name="Grupo 47" transform="translate(0)" clip-path="url(#clip-path)">
    <path id="Trazado_617" data-name="Trazado 617" d="M37.959,0C39.477.187,41,.325,42.513.569A34.77,34.77,0,0,1,56.891,6.426,36.1,36.1,0,0,1,72.47,33.683a36.167,36.167,0,0,1-14.054,31.37A36.453,36.453,0,0,1,19.2,68.35,36.443,36.443,0,0,1,1.718,47.557,30.475,30.475,0,0,1,.07,38.935,56.915,56.915,0,0,1,.1,32.788,34.477,34.477,0,0,1,2.806,22.1,36.313,36.313,0,0,1,28.414.873C30.154.5,31.949.374,33.719.131c.232-.032.462-.087.692-.131ZM36.245,14.605v-.027c-2.622,0-5.245-.018-7.868.007a38.538,38.538,0,0,0-4.661.17,10.861,10.861,0,0,0-9.3,10.433c-.059,7.442-.086,14.885.017,22.327a10.536,10.536,0,0,0,5.3,9.113,11.122,11.122,0,0,0,6.065,1.62q10.462.014,20.928,0a14.487,14.487,0,0,0,1.978-.13,11.1,11.1,0,0,0,9.4-10.829c.005-7.135.019-14.27-.017-21.406a13.05,13.05,0,0,0-.428-3.277,10.738,10.738,0,0,0-9.8-7.967c-3.869-.145-7.749-.03-11.624-.03" transform="translate(0)" fill="#3c3c3b"/>
    <path id="Trazado_618" data-name="Trazado 618" d="M43.758,61.082c-3.452,0-6.906-.095-10.353.027a6.385,6.385,0,0,1-6.679-6.494c.009-7.038-.027-14.078.016-21.116a6.131,6.131,0,0,1,4.77-6.345,6.884,6.884,0,0,1,1.744-.225q10.532-.023,21.065-.006a6.264,6.264,0,0,1,6.411,4.9,7.892,7.892,0,0,1,.183,1.747c.012,6.921,0,13.842.011,20.763a6.184,6.184,0,0,1-3.474,6.054,6.394,6.394,0,0,1-2.632.667c-3.687.073-7.375.031-11.063.031M55.049,44.131A11.232,11.232,0,0,0,32.59,43.7a11.232,11.232,0,1,0,22.459.429M58.09,32.412a2.66,2.66,0,0,0-2.681-2.632,2.661,2.661,0,1,0,.06,5.322,2.665,2.665,0,0,0,2.621-2.69" transform="translate(-7.57 -7.626)" fill="#3c3c3b"/>
    <path id="Trazado_619" data-name="Trazado 619" d="M47.982,54.711a6.474,6.474,0,1,1,6.528-6.486,6.413,6.413,0,0,1-6.528,6.486" transform="translate(-11.769 -11.832)" fill="#3c3c3b"/>
  </g>
</svg>
