<svg id="Grupo_62" data-name="Grupo 62" xmlns="http://www.w3.org/2000/svg" xmlns:xlink="http://www.w3.org/1999/xlink" width="76.624" height="70.282" viewBox="0 0 76.624 70.282">
  <defs>
    <clipPath id="clip-path">
      <rect id="Rectángulo_30" data-name="Rectángulo 30" width="76.624" height="70.282" fill="#fff"/>
    </clipPath>
  </defs>
  <g id="Grupo_61" data-name="Grupo 61" clip-path="url(#clip-path)">
    <path id="Trazado_623" data-name="Trazado 623" d="M0,40.015a9.608,9.608,0,0,0,1.639,3.7A7.479,7.479,0,0,0,7.5,46.736c4.693.067,9.388.023,14.082.024a1.95,1.95,0,0,0,.278-.05c.011-.253.033-.512.033-.771q0-18.78.015-37.56a1.159,1.159,0,0,0-.647-1.169A7.712,7.712,0,0,0,17.438,6.1c-3.276-.006-6.553-.053-9.827.012A7.711,7.711,0,0,0,.13,12.54a1.884,1.884,0,0,1-.13.33V40.015" transform="translate(0 -4.86)" fill="#fff"/>
    <path id="Trazado_624" data-name="Trazado 624" d="M150.717,44.738h.963q9.167,0,18.333,0a8.735,8.735,0,0,0,6.334-2.4A7.772,7.772,0,0,0,177.191,32c-.148-.2-.3-.395-.449-.588a7.256,7.256,0,0,0-1.832-11.45c1.5-4.046.442-7.249-3.232-9.626A7.2,7.2,0,0,0,165.053.017c-4.714-.03-9.429-.009-14.143-.009q-7.483,0-14.966,0a20.544,20.544,0,0,0-7.632,1.605.842.842,0,0,0-.632.922c.017,10.977.007,21.954.035,32.932a3.445,3.445,0,0,0,.513,1.22c.446.974.9,1.945,1.347,2.917q3.681,7.972,7.347,15.95a3.981,3.981,0,0,1,.336,1.573c.03,3.168.04,6.337,0,9.5a2.164,2.164,0,0,0,1.151,2.086,11.294,11.294,0,0,0,4.041,1.487,6.274,6.274,0,0,0,5.073-1.523,14.331,14.331,0,0,0,5.589-13.375,50.1,50.1,0,0,0-2.123-9.617c-.088-.28-.162-.565-.273-.954" transform="translate(-102.151 0)" fill="#fff"/>
  </g>
</svg>
