<svg id="Grupo_166" data-name="Grupo 166" xmlns="http://www.w3.org/2000/svg" xmlns:xlink="http://www.w3.org/1999/xlink" width="45" height="45" viewBox="0 0 45 45">
  <defs>
    <clipPath id="clip-path">
      <rect id="Rectángulo_104" data-name="Rectángulo 104" width="45" height="45" fill="none"/>
    </clipPath>
  </defs>
  <g id="Grupo_165" data-name="Grupo 165" clip-path="url(#clip-path)">
    <path id="Trazado_650" data-name="Trazado 650" d="M34.1,0h3.516V3.516c.692,0,1.32,0,1.949,0A5.271,5.271,0,0,1,45,8.953q.006,15.312,0,30.623a5.837,5.837,0,0,1-.134,1.305A5.253,5.253,0,0,1,39.55,45Q22.5,45,5.456,45c-.117,0-.234,0-.351-.005A5.25,5.25,0,0,1,1.072,42.9,6.067,6.067,0,0,1,0,40.341V8.174a.984.984,0,0,0,.065-.161,5.263,5.263,0,0,1,5.553-4.5H7.383V0H10.9V3.488H34.1Zm7.383,16.555H3.516v.511q0,11.16,0,22.321a1.825,1.825,0,0,0,2.091,2.1H39.4a1.825,1.825,0,0,0,2.088-2.1q0-11.161,0-22.321ZM34.112,7.063H10.888V10.52H7.366V7.031c-.706,0-1.364-.008-2.022,0a1.753,1.753,0,0,0-1.826,1.83c-.012,1.069,0,2.138,0,3.208,0,.3,0,.605,0,.906H41.478c0-1.45.021-2.869-.008-4.288a1.645,1.645,0,0,0-1.465-1.618c-.779-.071-1.569-.015-2.4-.015v3.47H34.112Z"/>
    <rect id="Rectángulo_90" data-name="Rectángulo 90" width="3.461" height="3.459" transform="translate(6.716 20.247)"/>
    <rect id="Rectángulo_91" data-name="Rectángulo 91" width="3.452" height="3.476" transform="translate(13.739 20.223)"/>
    <rect id="Rectángulo_92" data-name="Rectángulo 92" width="3.476" height="3.452" transform="translate(20.75 20.25)"/>
    <rect id="Rectángulo_93" data-name="Rectángulo 93" width="3.461" height="3.463" transform="translate(27.794 20.237)"/>
    <rect id="Rectángulo_94" data-name="Rectángulo 94" width="3.466" height="3.473" transform="translate(34.825 20.232)"/>
    <rect id="Rectángulo_95" data-name="Rectángulo 95" width="3.471" height="3.463" transform="translate(6.698 27.276)"/>
    <rect id="Rectángulo_96" data-name="Rectángulo 96" width="3.461" height="3.461" transform="translate(13.746 27.277)"/>
    <rect id="Rectángulo_97" data-name="Rectángulo 97" width="3.461" height="3.461" transform="translate(20.761 27.269)"/>
    <rect id="Rectángulo_98" data-name="Rectángulo 98" width="3.466" height="3.461" transform="translate(27.802 27.268)"/>
    <rect id="Rectángulo_99" data-name="Rectángulo 99" width="3.467" height="3.459" transform="translate(34.833 27.27)"/>
    <rect id="Rectángulo_100" data-name="Rectángulo 100" width="3.461" height="3.461" transform="translate(6.715 34.308)"/>
    <rect id="Rectángulo_101" data-name="Rectángulo 101" width="3.461" height="3.461" transform="translate(13.742 34.297)"/>
    <rect id="Rectángulo_102" data-name="Rectángulo 102" width="3.461" height="3.461" transform="translate(20.761 34.301)"/>
    <rect id="Rectángulo_103" data-name="Rectángulo 103" width="3.461" height="3.461" transform="translate(27.793 34.3)"/>
  </g>
</svg>
